<?xml version="1.0" encoding="utf-8"?>
<!-- Generator: Adobe Illustrator 16.0.0, SVG Export Plug-In . SVG Version: 6.00 Build 0)  -->
<!DOCTYPE svg PUBLIC "-//W3C//DTD SVG 1.1//EN" "http://www.w3.org/Graphics/SVG/1.1/DTD/svg11.dtd">
<svg version="1.1" id="Calque_1" xmlns="http://www.w3.org/2000/svg" xmlns:xlink="http://www.w3.org/1999/xlink" x="0px" y="0px"
	 width="595.281px" height="841.891px" viewBox="0 0 595.281 841.891" enable-background="new 0 0 595.281 841.891"
	 xml:space="preserve">
<g>
	<polygon fill="#005E31" points="47.321,380.194 100.883,495.359 122.265,495.359 72.263,380.146 47.321,380.194 	"/>
	<polygon fill="#005E31" points="81.517,380.069 127.895,495.359 149.067,495.359 133.441,451.055 160.83,495.107 175.954,495.107 
		142.346,380.32 116.468,380.069 132.936,431.93 102.69,380.069 81.517,380.069 	"/>
	<polygon fill="#005E31" points="147.385,380.32 190.235,495.107 225.692,495.107 218.634,380.069 190.235,380.069 201.327,464.902 
		173.433,380.32 147.385,380.32 	"/>
	<path fill="#005E31" d="M267.712,495.107h18.641l-15.627-115.039l-38.648,0.251l3.025,114.787h20.384l-0.138-16.149h9.457
		L267.712,495.107L267.712,495.107z M255.22,464.08l-0.344-40.333l7.253,40.333H255.22L255.22,464.08z"/>
	<path fill="#005E31" d="M334.41,380.32H290.05l1.345,114.787h37.638l11.763-10.314l8.403-77.537v-7.053L334.41,380.32
		L334.41,380.32z M319.155,482.481h-8.075l2.523-80.917h9.089L319.155,482.481L319.155,482.481z"/>
	<polygon fill="#005E31" points="410.703,402.474 415.572,380.32 360.455,380.32 344.829,495.107 391.376,495.107 394.237,481.521 
		370.875,481.521 376.042,448.893 397.424,449.546 401.963,430.92 378.89,430.92 383.478,401.969 410.703,402.474 	"/>
	<path fill="#005E31" d="M469.852,380.32l-46.546-0.251l-28.569,115.546l21.524-0.105l11.217-38.485h7.813l-11.45,38.439
		l21.307-0.104l13.274-37.001l-7.56-11.833l13.946-9.312l13.609-34.994v-4.031L469.852,380.32L469.852,380.32z M440.831,438.429
		h-7.935l10.61-36.413h8.169L440.831,438.429L440.831,438.429z"/>
	<polygon fill="#005E31" points="538.746,380.069 507.824,380.069 487.326,397.688 471.866,435.448 471.866,444.516 478.08,457.104 
		494.214,457.104 483.293,479.76 479.257,479.76 483.796,470.69 483.796,465.657 462.289,465.657 455.568,481.013 455.568,487.053 
		460.269,495.107 487.156,495.615 503.123,482.775 518.411,453.572 518.411,447.786 513.368,436.96 496.736,436.96 510.345,402.22 
		517.404,401.969 507.155,427.142 531.35,427.142 543.616,401.719 543.616,394.922 538.746,380.069 	"/>
	<polygon fill="#3E7183" stroke="#1D1D1B" points="47.321,380.194 100.883,495.359 122.265,495.359 72.263,380.146 47.321,380.194 	
		"/>
	<polygon fill="#3E7183" stroke="#1D1D1B" points="81.517,380.069 127.895,495.359 149.067,495.359 133.441,451.055 160.83,495.107 
		175.954,495.107 142.346,380.32 116.468,380.069 132.936,431.93 102.69,380.069 81.517,380.069 	"/>
	<polygon fill="#3E7183" stroke="#1D1D1B" points="147.385,380.32 190.235,495.107 225.692,495.107 218.634,380.069 
		190.235,380.069 201.327,464.902 173.433,380.32 147.385,380.32 	"/>
	<path fill="#3E7183" stroke="#1D1D1B" d="M267.712,495.107h18.641l-15.627-115.039l-38.648,0.251l3.025,114.787h20.384
		l-0.138-16.149h9.457L267.712,495.107L267.712,495.107z M255.22,464.08l-0.344-40.333l7.253,40.333H255.22L255.22,464.08z"/>
	<path fill="#3E7183" stroke="#1D1D1B" d="M334.41,380.32H290.05l1.345,114.787h37.638l11.763-10.314l8.403-77.537v-7.053
		L334.41,380.32L334.41,380.32z M319.155,482.481h-8.075l2.523-80.917h9.089L319.155,482.481L319.155,482.481z"/>
	<polygon fill="#3E7183" stroke="#1D1D1B" points="410.703,402.474 415.572,380.32 360.455,380.32 344.829,495.107 391.376,495.107 
		394.237,481.521 370.875,481.521 376.042,448.893 397.424,449.546 401.963,430.92 378.89,430.92 383.478,401.969 410.703,402.474 	
		"/>
	<path fill="#3E7183" stroke="#1D1D1B" d="M469.852,380.32l-46.546-0.251l-28.569,115.546l21.524-0.105l11.217-38.485h7.813
		l-11.45,38.439l21.307-0.104l13.274-37.001l-7.56-11.833l13.946-9.312l13.609-34.994v-4.031L469.852,380.32L469.852,380.32z
		 M440.831,438.429h-7.935l10.61-36.413h8.169L440.831,438.429L440.831,438.429z"/>
	<polygon fill="#3E7183" stroke="#1D1D1B" points="538.746,380.069 507.824,380.069 487.326,397.688 471.866,435.448 
		471.866,444.516 478.08,457.104 494.214,457.104 483.293,479.76 479.257,479.76 483.796,470.69 483.796,465.657 462.289,465.657 
		455.568,481.013 455.568,487.053 460.269,495.107 487.156,495.615 503.123,482.775 518.411,453.572 518.411,447.786 
		513.368,436.96 496.736,436.96 510.345,402.22 517.404,401.969 507.155,427.142 531.35,427.142 543.616,401.719 543.616,394.922 
		538.746,380.069 	"/>
	<polygon fill="#552D83" points="34.262,399.475 90.642,520.703 113.149,520.703 60.514,399.427 34.262,399.475 	"/>
	<polygon fill="#552D83" points="70.256,399.341 119.075,520.703 141.361,520.703 124.912,474.067 153.743,520.438 169.662,520.438 
		134.285,399.611 107.046,399.341 124.381,453.931 92.542,399.341 70.256,399.341 	"/>
	<polygon fill="#552D83" points="139.592,399.611 184.697,520.438 222.019,520.438 214.59,399.341 184.697,399.341 196.371,488.639 
		167.009,399.611 139.592,399.611 	"/>
	<path fill="#552D83" d="M266.25,520.438h19.622l-16.45-121.098l-40.683,0.271l3.184,120.827h21.458l-0.146-17.005h9.956
		L266.25,520.438L266.25,520.438z M253.101,487.779l-0.361-42.46l7.634,42.46H253.101L253.101,487.779z"/>
	<path fill="#552D83" d="M336.459,399.611h-46.693l1.413,120.827H330.8l12.382-10.859l8.844-81.618v-7.423L336.459,399.611
		L336.459,399.611z M320.403,507.145h-8.5l2.655-85.177h9.564L320.403,507.145L320.403,507.145z"/>
	<polygon fill="#552D83" points="416.765,422.927 421.894,399.611 363.875,399.611 347.427,520.438 396.423,520.438 
		399.432,506.131 374.844,506.131 380.285,471.79 402.789,472.481 407.566,452.868 383.281,452.868 388.109,422.396 
		416.765,422.927 	"/>
	<path fill="#552D83" d="M479.028,399.611l-48.997-0.271l-30.069,121.631l22.657-0.113l11.806-40.508h8.227l-12.056,40.461
		l22.431-0.108L467,481.756l-7.961-12.458l14.684-9.807l14.324-36.831v-4.238L479.028,399.611L479.028,399.611z M448.482,460.774
		h-8.353l11.167-38.325h8.601L448.482,460.774L448.482,460.774z"/>
	<polygon fill="#552D83" points="551.549,399.341 519.001,399.341 497.42,417.889 481.149,457.636 481.149,467.179 487.692,480.43 
		504.675,480.43 493.178,504.277 488.931,504.277 493.708,494.734 493.708,489.432 471.069,489.432 463.994,505.602 
		463.994,511.957 468.945,520.438 497.246,520.971 514.049,507.456 530.142,476.719 530.142,470.624 524.836,459.231 
		507.329,459.231 521.654,422.66 529.083,422.396 518.294,448.893 543.764,448.893 556.674,422.134 556.674,414.978 
		551.549,399.341 	"/>
	<polygon fill="#4E3D86" stroke="#1D1D1B" points="34.262,399.475 90.642,520.703 113.149,520.703 60.514,399.427 34.262,399.475 	
		"/>
	<polygon fill="#4E3D86" stroke="#1D1D1B" points="70.256,399.341 119.075,520.703 141.361,520.703 124.912,474.067 
		153.743,520.438 169.662,520.438 134.285,399.611 107.046,399.341 124.381,453.931 92.542,399.341 70.256,399.341 	"/>
	<polygon fill="#4E3D86" stroke="#1D1D1B" points="139.592,399.611 184.697,520.438 222.019,520.438 214.59,399.341 
		184.697,399.341 196.371,488.639 167.009,399.611 139.592,399.611 	"/>
	<path fill="#4E3D86" stroke="#1D1D1B" d="M266.25,520.438h19.622l-16.45-121.098l-40.683,0.271l3.184,120.827h21.458l-0.146-17.005
		h9.956L266.25,520.438L266.25,520.438z M253.101,487.779l-0.361-42.46l7.634,42.46H253.101L253.101,487.779z"/>
	<path fill="#4E3D86" stroke="#1D1D1B" d="M336.459,399.611h-46.693l1.413,120.827H330.8l12.382-10.859l8.844-81.618v-7.423
		L336.459,399.611L336.459,399.611z M320.403,507.145h-8.5l2.655-85.177h9.564L320.403,507.145L320.403,507.145z"/>
	<polygon fill="#4E3D86" stroke="#1D1D1B" points="416.765,422.927 421.894,399.611 363.875,399.611 347.427,520.438 
		396.423,520.438 399.432,506.131 374.844,506.131 380.285,471.79 402.789,472.481 407.566,452.868 383.281,452.868 
		388.109,422.396 416.765,422.927 	"/>
	<path fill="#4E3D86" stroke="#1D1D1B" d="M479.028,399.611l-48.997-0.271l-30.069,121.631l22.657-0.113l11.806-40.508h8.227
		l-12.056,40.461l22.431-0.108L467,481.756l-7.961-12.458l14.684-9.807l14.324-36.831v-4.238L479.028,399.611L479.028,399.611z
		 M448.482,460.774h-8.353l11.167-38.325h8.601L448.482,460.774L448.482,460.774z"/>
	<polygon fill="#4E3D86" stroke="#1D1D1B" points="551.549,399.341 519.001,399.341 497.42,417.889 481.149,457.636 
		481.149,467.179 487.692,480.43 504.675,480.43 493.178,504.277 488.931,504.277 493.708,494.734 493.708,489.432 471.069,489.432 
		463.994,505.602 463.994,511.957 468.945,520.438 497.246,520.971 514.049,507.456 530.142,476.719 530.142,470.624 
		524.836,459.231 507.329,459.231 521.654,422.66 529.083,422.396 518.294,448.893 543.764,448.893 556.674,422.134 
		556.674,414.978 551.549,399.341 	"/>
	<polygon fill="#FFE90C" stroke="#1D1D1B" points="20.512,417.48 79.86,545.09 103.552,545.09 48.146,417.427 20.512,417.48 	"/>
	<polygon fill="#FFE90C" stroke="#1D1D1B" points="58.401,417.34 109.79,545.09 133.25,545.09 115.934,495.997 146.284,544.809 
		163.04,544.809 125.802,417.618 97.13,417.34 115.376,474.797 81.862,417.34 58.401,417.34 	"/>
	<polygon fill="#FFE90C" stroke="#1D1D1B" points="131.388,417.618 178.867,544.809 218.153,544.809 210.332,417.34 178.867,417.34 
		191.155,511.341 160.247,417.618 131.388,417.618 	"/>
	<path fill="#FFE90C" stroke="#1D1D1B" d="M264.711,544.809h20.655l-17.316-127.47l-42.824,0.279l3.352,127.191h22.587
		l-0.154-17.898h10.48L264.711,544.809L264.711,544.809z M250.871,510.426l-0.382-44.688l8.039,44.688H250.871L250.871,510.426z"/>
	<path fill="#FFE90C" stroke="#1D1D1B" d="M338.619,417.618h-49.156l1.49,127.191h41.706l13.035-11.435l9.309-85.91v-7.81
		L338.619,417.618L338.619,417.618z M321.715,530.82h-8.949l2.796-89.664h10.068L321.715,530.82L321.715,530.82z"/>
	<polygon fill="#FFE90C" stroke="#1D1D1B" points="423.148,442.163 428.547,417.618 367.477,417.618 350.161,544.809 
		401.736,544.809 404.902,529.746 379.022,529.746 384.747,493.605 408.438,494.323 413.466,473.681 387.903,473.681 
		392.985,441.605 423.148,442.163 	"/>
	<path fill="#FFE90C" stroke="#1D1D1B" d="M488.686,417.618l-51.573-0.279l-31.654,128.027l23.851-0.117l12.426-42.639h8.66
		l-12.687,42.597l23.608-0.118l14.709-41.002l-8.379-13.112l15.453-10.318l15.082-38.771v-4.463L488.686,417.618L488.686,417.618z
		 M456.535,482.004h-8.792l11.755-40.344h9.054L456.535,482.004L456.535,482.004z"/>
	<polygon fill="#FFE90C" stroke="#1D1D1B" points="565.024,417.34 530.765,417.34 508.05,436.865 490.92,478.702 490.92,488.744 
		497.81,502.691 515.685,502.691 503.582,527.796 499.113,527.796 504.14,517.754 504.14,512.175 480.309,512.175 472.861,529.188 
		472.861,535.883 478.075,544.809 507.865,545.367 525.552,531.143 542.496,498.786 542.496,492.373 536.91,480.376 
		518.476,480.376 533.558,441.886 541.378,441.605 530.02,469.5 556.832,469.5 570.423,441.328 570.423,433.797 565.024,417.34 	"/>
	<polygon fill="#3E7183" stroke="#1D1D1B" points="186.172,191.771 154.198,191.771 143.375,214.721 143.875,222.454 
		153.533,260.373 171.016,286.318 188.336,286.318 192.83,308.022 188.668,308.022 186.172,296.545 162.025,296.545 
		162.025,302.781 166.188,316.747 180.341,331.975 206.154,331.975 216.143,315.503 216.143,308.27 212.313,278.335 
		197.827,258.377 179.677,258.377 172.35,223.454 177.51,223.454 181.341,246.653 207.318,246.653 202.989,215.469 186.172,191.771 
			"/>
	<path fill="#3E7183" stroke="#1D1D1B" d="M270.098,214.473l-16.82-22.953l-44.958,0.251l18.149,139.95h21.314l-3.534-36.478
		l16.689,0.054l11.325-23.199L270.098,214.473L270.098,214.473z M241.548,267.358l-4.255-43.904h6.329l4.273,43.904H241.548
		L241.548,267.358z"/>
	<path fill="#3E7183" stroke="#1D1D1B" d="M306.802,332.34h20.265l-8.059-140.488h-36.195l-8.721,140.488h20.468l1.411-24.161h9.372
		L306.802,332.34L306.802,332.34z M297.225,286.74l3.357-57.427l3.468,57.427H297.225L297.225,286.74z"/>
	<polygon fill="#3E7183" stroke="#1D1D1B" points="385.307,191.852 355.858,191.852 338.582,215.267 333.154,314.837 
		343.353,332.34 368.855,332.089 383.006,315.085 389.25,278.604 365.537,278.604 362.11,310.648 355.038,310.648 363.921,221.426 
		371.649,221.426 368.807,248.045 394.486,248.045 399.126,220.935 399.126,213.54 385.307,191.852 	"/>
	<polygon fill="#3E7183" stroke="#1D1D1B" points="457.995,223.153 465.427,192.098 410.972,191.852 387.609,332.34 431.864,332.34 
		437.172,310.15 414.263,310.15 421.03,276.386 438.448,276.386 445.028,249.277 426.464,249.277 431.7,223.153 457.995,223.153 	
		"/>
	<polygon fill="#4E3D86" stroke="#1D1D1B" points="178.623,212.375 144.611,212.375 133.095,236.791 133.627,245.018 
		143.901,285.353 162.501,312.957 180.926,312.957 185.708,336.044 181.28,336.044 178.623,323.836 152.937,323.836 
		152.937,330.471 157.366,345.329 172.423,361.529 199.882,361.529 210.51,344.003 210.51,336.311 206.435,304.465 191.024,283.232 
		171.713,283.232 163.92,246.078 169.412,246.078 173.486,270.76 201.12,270.76 196.515,237.584 178.623,212.375 	"/>
	<path fill="#4E3D86" stroke="#1D1D1B" d="M267.907,236.527l-17.893-24.418l-47.83,0.266l19.309,148.883h22.675l-3.76-38.806
		l17.755,0.06l12.046-24.682L267.907,236.527L267.907,236.527z M237.536,292.787l-4.527-46.709h6.732l4.545,46.709H237.536
		L237.536,292.787z"/>
	<path fill="#4E3D86" stroke="#1D1D1B" d="M306.957,361.915h21.557L319.94,212.46h-38.507l-9.275,149.456h21.774l1.501-25.701h9.969
		L306.957,361.915L306.957,361.915z M296.766,313.405l3.571-61.091l3.688,61.091H296.766L296.766,313.405z"/>
	<polygon fill="#4E3D86" stroke="#1D1D1B" points="390.47,212.46 359.142,212.46 340.764,237.369 334.99,343.298 345.842,361.915 
		372.969,361.65 388.022,343.559 394.667,304.753 369.437,304.753 365.792,338.838 358.265,338.838 367.718,243.925 
		375.943,243.925 372.917,272.24 400.234,272.24 405.171,243.399 405.171,235.535 390.47,212.46 	"/>
	<polygon fill="#4E3D86" stroke="#1D1D1B" points="467.798,245.76 475.706,212.724 417.775,212.46 392.92,361.915 440,361.915 
		445.648,338.311 421.274,338.311 428.474,302.393 447.003,302.393 454.003,273.551 434.255,273.551 439.827,245.76 467.798,245.76 
			"/>
	<polygon fill="#FFE90C" stroke="#1D1D1B" points="170.594,229.808 134.411,229.808 122.161,255.781 122.726,264.535 
		133.657,307.446 153.444,336.811 173.044,336.811 178.132,361.371 173.421,361.371 170.594,348.384 143.268,348.384 
		143.268,355.442 147.979,371.251 163.997,388.474 193.209,388.474 204.516,369.84 204.516,361.654 200.182,327.776 
		183.786,305.189 163.244,305.189 154.952,265.664 160.794,265.664 165.129,291.919 194.528,291.919 189.627,256.628 
		170.594,229.808 	"/>
	<path fill="#FFE90C" stroke="#1D1D1B" d="M265.577,255.5l-19.035-25.976l-50.882,0.284l20.541,158.383h24.122l-4-41.282
		l18.889,0.065l12.814-26.258L265.577,255.5L265.577,255.5z M233.267,315.352l-4.815-49.688h7.161l4.836,49.688H233.267
		L233.267,315.352z"/>
	<path fill="#FFE90C" stroke="#1D1D1B" d="M307.119,388.889h22.935L320.929,229.9h-40.962l-9.868,158.989h23.163l1.597-27.335
		h10.607L307.119,388.889L307.119,388.889z M296.276,337.288l3.8-64.991l3.928,64.991H296.276L296.276,337.288z"/>
	<polygon fill="#FFE90C" stroke="#1D1D1B" points="395.964,229.9 362.636,229.9 343.087,256.398 336.941,369.085 348.485,388.889 
		377.344,388.611 393.357,369.365 400.427,328.082 373.589,328.082 369.711,364.344 361.706,364.344 371.758,263.372 
		380.511,263.372 377.29,293.494 406.349,293.494 411.605,262.814 411.605,254.445 395.964,229.9 	"/>
	<polygon fill="#FFE90C" stroke="#1D1D1B" points="478.228,265.323 486.638,230.178 425.009,229.9 398.571,388.889 448.655,388.889 
		454.664,363.785 428.734,363.785 436.393,325.573 456.103,325.573 463.551,294.89 442.542,294.89 448.469,265.323 478.228,265.323 
			"/>
</g>
</svg>
