<?xml version="1.0" encoding="utf-8"?>
<!-- Svg Vector Icons : http://www.onlinewebfonts.com/icon -->
<!DOCTYPE svg PUBLIC "-//W3C//DTD SVG 1.1//EN" "http://www.w3.org/Graphics/SVG/1.1/DTD/svg11.dtd">
<svg version="1.1" xmlns="http://www.w3.org/2000/svg" xmlns:xlink="http://www.w3.org/1999/xlink" x="0px" y="0px" viewBox="0 0 1000 1000" enable-background="new 0 0 1000 1000" xml:space="preserve">
<metadata> Svg Vector Icons : http://www.onlinewebfonts.com/icon </metadata>
<g><g><g><path d="M647.2,795.7l-87.8,29.9c-1.3,0.5-2.5,1.2-3.4,2.2l-50.8,56.3H495l-50.8-56.3c-0.8-1-2-1.8-3.4-2.2L353,795.7c-3.4-1.2-7.2-0.2-9.3,2.9c-2,3-1.9,6.6,0.5,9.3L498.5,989c0.5,0.5,1,0.8,1.7,1c0.7-0.2,1.2-0.5,1.7-1l154.2-181.2c2.4-2.7,2.5-6.4,0.5-9.3C654.4,795.6,650.7,794.5,647.2,795.7z"/><path d="M892.4,878.3c0-0.7,0.2-1.3,0.2-1.7c0-1.2-0.2-2.4-0.2-3.4c-3-77.4-6.1-154.9-9.1-232.3c-1.9-47.3-3.7-94.7-5.7-142c-1.5-35,6.7-104.1-45.9-101.9c-20.5,0.8-38,15.8-44.4,35c-2.9,8.2-12.6,85.4-5.7,87.6l-37.5-11.1c3.9-30.6,12.6-152.9-73.2-294.2C620.3,131.7,510.4,13.7,509.3,12.6c-2.4-2.5-6.1-3.2-9.3-1.9c-3-1.3-6.7-0.8-9.3,1.9c-1.2,1.2-111,119.3-161.6,201.8c-85.8,141.3-77.2,263.6-73.2,294.2c0,0-37.3,11.1-37.5,11.1c6.9-2-2.9-79.2-5.7-87.6c-6.4-19.2-23.9-34.1-44.4-35c-52.5-2-44.4,66.9-45.9,101.9c-2,47.3-3.9,94.7-5.7,142c-3,77.4-6.1,154.9-9.1,232.3c0,1.2-0.2,2.4-0.2,3.4c0,0.3,0,1,0.2,1.7c-1.7,18.2,4.7,36.3,17.2,49c22.5,22.5,62.2,22.2,85.1-0.7c11.4-11.4,16.5-22.9,17.3-39c0.2-0.5,0.2-1,0.2-1.5l5.4-115.2c30.1-18.5,62.4-37.8,74.3-44.2c14.6,19.2,88,75.5,174.9,75.5h8.4c3.2,0,6.2,0,9.3-0.2c3,0,6.1,0.2,9.3,0.2h8.4c87,0,160.3-56.2,174.9-75.5c11.9,6.4,44.2,25.7,74.3,44.2l5.4,115.2c0,0.5,0.2,1,0.2,1.5c0.8,16.2,5.9,27.6,17.3,39c22.9,22.9,62.6,23.2,85.1,0.7C887.7,914.8,894.1,896.6,892.4,878.3z M578.7,519.9c-21,21-48.9,32.6-78.7,32.6s-57.7-11.6-78.7-32.6c-43.4-43.4-43.4-114,0-157.3c21-21,48.9-32.6,78.7-32.6c29.8,0,57.7,11.6,78.7,32.6C622.1,406,622.1,476.5,578.7,519.9z"/></g></g><g></g><g></g><g></g><g></g><g></g><g></g><g></g><g></g><g></g><g></g><g></g><g></g><g></g><g></g><g></g></g>
</svg>