<?xml version="1.0" encoding="utf-8"?>
<!-- Generator: Adobe Illustrator 16.0.0, SVG Export Plug-In . SVG Version: 6.00 Build 0)  -->
<!DOCTYPE svg PUBLIC "-//W3C//DTD SVG 1.1//EN" "http://www.w3.org/Graphics/SVG/1.1/DTD/svg11.dtd">
<svg version="1.1" id="Calque_1" xmlns="http://www.w3.org/2000/svg" xmlns:xlink="http://www.w3.org/1999/xlink" x="0px" y="0px"
	 width="595.281px" height="841.891px" viewBox="0 0 595.281 841.891" enable-background="new 0 0 595.281 841.891"
	 xml:space="preserve">
<g>
	<g>
		<g>
			<path fill="#039ABE" d="M385.265,596.969L333,614.768c-0.773,0.298-1.488,0.715-2.023,1.31l-30.24,33.515h-6.072l-30.24-33.515
				c-0.476-0.595-1.19-1.071-2.024-1.31l-52.266-17.799c-2.024-0.714-4.286-0.119-5.536,1.727c-1.19,1.786-1.131,3.929,0.298,5.536
				l91.852,107.805c0.298,0.298,0.595,0.477,1.012,0.596c0.416-0.119,0.715-0.298,1.012-0.596l91.793-107.864
				c1.428-1.607,1.488-3.81,0.297-5.536C389.552,596.91,387.349,596.256,385.265,596.969z"/>
			<path fill="#039ABE" d="M531.228,646.139c0-0.416,0.119-0.773,0.119-1.012c0-0.714-0.119-1.429-0.119-2.023
				c-1.785-46.075-3.631-92.209-5.416-138.284c-1.133-28.156-2.203-56.373-3.395-84.53c-0.893-20.834,3.988-61.968-27.322-60.658
				c-12.203,0.476-22.621,9.405-26.432,20.834c-1.727,4.882-7.5,50.838-3.393,52.147l-22.322-6.607
				c2.32-18.216,7.5-91.019-43.574-175.132c-30.123-49.17-95.543-119.413-96.199-120.068c-1.428-1.488-3.631-1.905-5.535-1.131
				c-1.786-0.774-3.988-0.477-5.536,1.131c-0.714,0.715-66.076,71.017-96.197,120.128c-51.075,84.113-45.956,156.916-43.575,175.132
				c0,0-22.204,6.607-22.323,6.607c4.107-1.19-1.727-47.146-3.393-52.147c-3.81-11.429-14.227-20.299-26.431-20.834
				c-31.252-1.191-26.43,39.824-27.323,60.658c-1.19,28.157-2.322,56.374-3.393,84.53c-1.786,46.075-3.631,92.209-5.417,138.284
				c0,0.714-0.119,1.429-0.119,2.023c0,0.179,0,0.596,0.119,1.012c-1.012,10.835,2.798,21.609,10.239,29.169
				c13.394,13.394,37.026,13.216,50.658-0.417c6.786-6.786,9.822-13.632,10.298-23.216c0.119-0.297,0.119-0.595,0.119-0.893
				l3.214-68.576c17.918-11.013,37.146-22.502,44.229-26.312c8.691,11.43,52.385,44.943,104.115,44.943h5
				c1.905,0,3.691,0,5.536-0.119c1.786,0,3.632,0.119,5.536,0.119h5c51.789,0,95.424-33.454,104.115-44.943
				c7.084,3.81,26.311,15.299,44.229,26.312l3.215,68.576c0,0.298,0.119,0.596,0.119,0.893c0.477,9.644,3.512,16.43,10.299,23.216
				c13.631,13.633,37.264,13.811,50.658,0.417C528.431,667.868,532.24,657.033,531.228,646.139z M344.488,432.792
				c-12.5,12.501-29.107,19.406-46.848,19.406c-17.739,0-34.348-6.905-46.849-19.406c-25.835-25.836-25.835-67.862,0-93.638
				c12.501-12.501,29.109-19.406,46.849-19.406c17.74,0,34.348,6.905,46.848,19.406
				C370.324,364.989,370.324,406.956,344.488,432.792z"/>
		</g>
	</g>
</g>
</svg>
