<?xml version="1.0" encoding="utf-8"?>
<!-- Generator: Adobe Illustrator 16.0.0, SVG Export Plug-In . SVG Version: 6.00 Build 0)  -->
<!DOCTYPE svg PUBLIC "-//W3C//DTD SVG 1.1//EN" "http://www.w3.org/Graphics/SVG/1.1/DTD/svg11.dtd">
<svg version="1.1" id="Calque_1" xmlns="http://www.w3.org/2000/svg" xmlns:xlink="http://www.w3.org/1999/xlink" x="0px" y="0px"
	 width="595.281px" height="841.891px" viewBox="0 0 595.281 841.891" enable-background="new 0 0 595.281 841.891"
	 xml:space="preserve">
<g>
	<rect x="122.562" y="181.329" fill="#342D76" width="49.329" height="53.488"/>
	<rect x="170.649" y="356.212" fill="#FFFFFF" width="49.319" height="53.477"/>
	<rect x="71.911" y="604.332" fill="#342D76" width="49.329" height="53.476"/>
	<rect x="428.327" y="181.329" fill="#342D76" width="49.322" height="53.488"/>
	<path fill="#342D76" d="M540.03,237.149v122.129h-64.05v-54.535h-47.853v-70.708h-49.31v70.708h-78.38h-0.676h-78.364v-70.708
		h-49.329v70.708H124.22v54.535H60.167V237.149H12.125V465.21h46.707v67.684h62.596v72.234h49.32v-72.234h129.014h0.676h129.001
		v72.234h49.322v-72.234h62.594V465.21h46.713V237.149H540.03z M219.968,409.688h-49.319v-53.477h49.319V409.688z M380.222,356.212
		h49.336v53.477h-49.336V356.212z"/>
	<rect x="380.222" y="356.212" fill="#FFFFFF" width="49.336" height="53.477"/>
	<rect x="478.96" y="604.332" fill="#342D76" width="49.322" height="53.476"/>
</g>
</svg>
