<?xml version="1.0" encoding="utf-8"?>
<!-- Generator: Adobe Illustrator 16.0.0, SVG Export Plug-In . SVG Version: 6.00 Build 0)  -->
<!DOCTYPE svg PUBLIC "-//W3C//DTD SVG 1.1//EN" "http://www.w3.org/Graphics/SVG/1.1/DTD/svg11.dtd">
<svg version="1.1" id="Calque_1" xmlns="http://www.w3.org/2000/svg" xmlns:xlink="http://www.w3.org/1999/xlink" x="0px" y="0px"
	 width="595.281px" height="841.891px" viewBox="0 0 595.281 841.891" enable-background="new 0 0 595.281 841.891"
	 xml:space="preserve">
<g>
	<rect x="156.561" y="604.406" fill="#A8C44E" width="80.35" height="66.162"/>
	<path fill="#A8C44E" d="M499.942,604.406v-49.557h-60.743v-65.877h120.468V387.039h-63.521V323.99h-58.45v-50.975h-78.181v-48.269
		h-61.622h-0.477h-61.623v48.269h-78.189v50.975H99.149v63.049H35.612v101.933h120.48v65.877H95.354v49.557H15.332v66.162H95.67
		v-66.162h60.891v-48.988h79.865v-66.445h60.99h0.477h60.956v66.445h79.874v48.988h60.915v66.162h80.325v-66.162H499.942z
		 M236.425,439.547h-80.333v-68.865h80.333V439.547z M358.848,439.547v-68.865h80.351v68.865H358.848z"/>
	<rect x="358.388" y="604.406" fill="#A8C44E" width="80.334" height="66.162"/>
	<polygon fill="#A8C44E" points="297.021,554.849 237.083,554.849 237.083,604.406 297.021,604.406 298.287,604.406 
		358.225,604.406 358.225,554.849 298.287,554.849 	"/>
	<rect x="156.092" y="370.682" fill="#FFFFFF" width="80.333" height="68.865"/>
	<rect x="358.848" y="370.682" fill="#FFFFFF" width="80.351" height="68.865"/>
</g>
</svg>
