<?xml version="1.0" encoding="utf-8"?>
<!-- Svg Vector Icons : http://www.onlinewebfonts.com/icon -->
<!DOCTYPE svg PUBLIC "-//W3C//DTD SVG 1.1//EN" "http://www.w3.org/Graphics/SVG/1.1/DTD/svg11.dtd">
<svg version="1.1" xmlns="http://www.w3.org/2000/svg" xmlns:xlink="http://www.w3.org/1999/xlink" x="0px" y="0px" viewBox="0 0 1000 1000" enable-background="new 0 0 1000 1000" xml:space="preserve">
<metadata> Svg Vector Icons : http://www.onlinewebfonts.com/icon </metadata>
<g><g><path d="M970.7,544.1c-19,0-38.2,0.1-57.2,0c-2.8,0-3.8-0.3-7-0.5c-2.9-0.3-3.6-2.8-3.6-5.8c0-26.1,0-51.2,0-76.8c0-2.9-4.2-5.3-7.1-5.3c-22.9,0-45.6,0-67.3,0c-17.1,0-17.6,0-17.6-17.5c0-22-0.2-44.9-0.2-68.1c0-2.9-2.6-6.2-5.5-6.2c-26.5,0-51.8,0-78,0c-2.9,0-9.4-0.7-9.4-3.6c0-26.3,0-51.5,0-77.4c0-2.9-0.3-5.3-3.2-5.3c-20.6,0-39.1-0.1-58.6,0c-25.2,0.2-21.5-3.4-21.7,22.8c-0.2,19.7,0.2,39,0.2,58.7c0,2.9-2.1,4.8-5,4.8c-43.5,0-86.5,0-129.4,0s-85.9,0-129.4,0c-2.9,0-5.3-1.9-5.3-4.8c0-19.7,0.1-39.2,0-58.9c-0.2-26.2,2.9-22.5-22.3-22.7c-19.5-0.2-36.9,0-57.6,0c-2.9,0-3.3,2.4-3.3,5.4c0,26,0,51.2,0,77.4c0,2.9-6.5,3.6-9.4,3.6c-26.2,0-51.5,0-78,0c-2.9,0-5.3,3.2-5.3,6.2c0,23.2,0,45.7,0,67.7c0,17.5,0,17.7-17.1,17.7c-21.7,0-45.2,0.1-68.2,0.1c-2.9,0-7.1,2.5-7.1,5.4c0,25.5,0,50.7,0,76.8c0,2.9-0.6,5.5-3.5,5.8c-3.2,0.3-5,0.5-7.8,0.5c-19,0.1-38,0-56.9,0c-18.9,0-18.9,0-18.9,18.3c0,100.7,0,201.4,0,302.1c0,9.3,0,18.5,0,28.3c0,2.9,3.2,4.7,6.1,4.7c26.3,0,51.2,0,77,0c2.9,0,4-1.8,4-4.7c0-84.8,0-169,0-254.1c0-2.9,3.7-2.5,6.6-2.5c27,0,53,0,80,0c2.9,0,0.5-0.4,0.5,2.5c0,55,0,109.8,0,166.2c0,2.9,7.2,5.5,10.1,5.5c26.6,0,52.2,0,77.7,0c2.9,0,7.9,0,7.7,0.1l0,0c0.6,0.5,2.4,2.5,2.4,5c0,25.5,0,51,0,77.2c0,2.9-2.5,4.8,0.4,4.8c56.1,0,110.6,0,165.7,0c2.9,0,8.1-1.9,8.1-4.8c0-25.3,0-50.2,0-76.8c0-2.9-5.2-5.5-8.1-5.5c-55.5,0-110.8,0-166.2,0c-1.3,0-1.9,0-2.3,0c0.3,0,2.3-2.4,2.3-5.1c0-25.9,0-51.9,0-78.5c0-2.9-3-3.5-0.1-3.5c72.8,0,145.2,0,217.8,0c72.6,0,145,0,217.8,0c2.9,0-0.1,0.6-0.1,3.5c0,26.6,0,52.6,0,78.5c0,2.7,2,5.1,2.3,5.1l0,0c0,0,0.1,0.1,0.1,0.1c0,0,0.1-0.1,0.1-0.1l0,0c0,0-0.1,0-0.1,0.1c0,0,0,0,0,0c-0.1-0.1,4.8-0.1,7.8-0.1c25.5,0,51.1,0,77.7,0c2.9,0,10.1-2.6,10.1-5.5c0-56.4,0-111.1,0-166.2c0-2.9-2.5-2.5,0.5-2.5c27,0,53,0,80,0c2.9,0,6.6-0.4,6.6,2.5c0,85.2,0,169.4,0,254.1c0,2.9,1,4.7,4,4.7c25.9,0,50.8,0,77,0c2.9,0,6.2-1.7,6.2-4.7c0-9.7,0-19,0-28.3c0-100.7,0-201.4,0-302.1C990,544.1,989.6,544.1,970.7,544.1z M456.4,538.4c0,2.9-4.3,10.6-7.2,10.6c-55.7,0-110.5,0-166.1,0c-2.9,0-0.9-7.7-0.9-10.6c0-26.1,0-51.9,0-78.4c0-2.9-2-9,0.9-9c55.4,0,110.7,0,166.1,0c2.9,0,7.2,6,7.2,9C456.4,486.5,456.4,512.3,456.4,538.4z M716.9,549c-55.6,0-110.4,0-166.1,0c-2.9,0-7.2-7.7-7.2-10.6c0-26.1,0-51.9,0-78.4c0-2.9,4.3-9,7.2-9c55.4,0,110.7,0,166.1,0c2.9,0,0.9,6,0.9,9c0,26.5,0,52.3,0,78.4C717.8,541.3,719.8,549,716.9,549z"/><path d="M551.7,810.4c-2.9,0-8.1,2.6-8.1,5.5c0,26.6,0,51.4,0,76.8c0,2.9,5.2,4.8,8.1,4.8c55.1,0,109.6,0,165.7,0c2.9,0,0.4-1.9,0.4-4.8c0-26.2,0-51.8,0-77.2c0-2.5,1.8-4.5,2.4-5c0,0-0.1-0.1-0.1-0.1c-0.3,0-1,0-2.3,0C662.5,810.4,607.1,810.4,551.7,810.4z"/><path d="M819,189.7c25.2,0,49.9,0,74.9,0c2.9,0,9-5.8,9-8.7c0-25.5,0-50.6,0-76.1c0-2.9-6.1-2.3-9-2.3c-25.1,0-49.7,0-74.9,0c-2.9,0-3.2-0.6-3.2,2.3c0,25.6,0,50.6,0,76.1C815.8,183.9,816,189.7,819,189.7z"/><path d="M729.5,276.8c25,0,49.4,0,74.9,0c2.9,0,0.5-4.4,0.5-7.3c0-25.5,0-50,0-74.9c0-2.9,2.4-4.9-0.5-4.9c-25.4,0-50.3,0-74.9,0c-2.9,0-0.8,1.9-0.8,4.9c0,25.3,0,49.9,0,74.9C728.7,272.4,726.5,276.8,729.5,276.8z"/><path d="M106.1,189.7c25,0,49.7,0,74.9,0c2.9,0,3.2-5.8,3.2-8.7c0-25.5,0-50.5,0-76.1c0-2.9-0.3-2.3-3.2-2.3c-25.1,0-49.8,0-74.9,0c-2.9,0-9-0.6-9,2.3c0,25.5,0,50.5,0,76.1C97.1,183.9,103.2,189.7,106.1,189.7z"/><path d="M195.6,276.8c25.5,0,49.9,0,74.9,0c2.9,0,0.8-4.4,0.8-7.3c0-24.9,0-49.6,0-74.9c0-2.9,2.1-4.9-0.8-4.9c-24.6,0-49.5,0-74.9,0c-2.9,0-0.5,1.9-0.5,4.9c0,24.8,0,49.4,0,74.9C195.1,272.4,192.7,276.8,195.6,276.8z"/></g><g></g><g></g><g></g><g></g><g></g><g></g><g></g><g></g><g></g><g></g><g></g><g></g><g></g><g></g><g></g></g>
</svg>