<?xml version="1.0" encoding="utf-8"?>
<!-- Generator: Adobe Illustrator 16.0.0, SVG Export Plug-In . SVG Version: 6.00 Build 0)  -->
<!DOCTYPE svg PUBLIC "-//W3C//DTD SVG 1.1//EN" "http://www.w3.org/Graphics/SVG/1.1/DTD/svg11.dtd">
<svg version="1.1" id="Calque_1" xmlns="http://www.w3.org/2000/svg" xmlns:xlink="http://www.w3.org/1999/xlink" x="0px" y="0px"
	 width="595.281px" height="841.891px" viewBox="0 0 595.281 841.891" enable-background="new 0 0 595.281 841.891"
	 xml:space="preserve">
<path fill="#E21F21" d="M549.656,460.4v-64.62h-36.071l-0.884-46.992h-32.873l0.885-44.053h-81.655v-49.989H297.916h-0.554H196.218
	v49.989h-81.655l0.884,44.053H82.575l-0.889,46.992H45.625v64.62H10.629v30.844h71.057v42.595h31.811v52.867h38.175v-51.403h32.882
	v-39.653h77.108v38.189h35.7h0.554h35.699v-38.189h77.108v39.653h32.88v51.403h38.176v-52.867h31.806v-42.595h71.066V460.4H549.656z
	 M150.953,444.927h-35.415v-49.146h35.415V444.927z M262.541,444.927h-35.405v-49.146h35.405V444.927z M369.02,444.927h-35.405
	v-49.146h35.405V444.927z M479.737,444.927h-35.413v-49.146h35.413V444.927z"/>
</svg>
